<?xml version="1.0" encoding="utf-8"?>

<!DOCTYPE svg PUBLIC "-//W3C//DTD SVG 1.1//EN" "http://www.w3.org/Graphics/SVG/1.1/DTD/svg11.dtd">
<!-- Uploaded to: SVG Repo, www.svgrepo.com, Generator: SVG Repo Mixer Tools -->
<svg height="800px" width="800px" version="1.1" id="_x32_" xmlns="http://www.w3.org/2000/svg"
     viewBox="0 0 512 512" xml:space="preserve">
<style type="text/css">
	.st0{fill:#000000;}
</style>
    <g>
	<path class="st0" d="M500.213,11.784c-21.956-21.955-59.876-12.148-100.059,20.5c-36.406,28.882-52.58,39.984-127.067,111.659
		c-51.913,45.196-92.315,89.216-101.204,121.814c-0.837,3.11-1.345,6-1.565,8.691l-37.682,37.682l-89.105,62.815
		c-2.143,1.505-4.126,3.18-5.96,5.013c-5.99,5.99-10.225,13.574-12.159,21.936L0,511.996l110.114-25.413
		c8.361-1.913,15.946-6.159,21.935-12.158c1.834-1.814,3.508-3.808,5.013-5.95l62.816-89.106l37.681-37.682
		c2.691-0.228,5.59-0.726,8.691-1.564c32.598-8.89,76.628-49.292,121.814-101.205c71.675-74.485,82.777-90.66,111.659-127.076
		C512.371,71.66,522.177,33.748,500.213,11.784z M120.499,456.805c-0.837,1.176-1.765,2.283-2.781,3.299
		c-3.319,3.319-7.524,5.67-12.158,6.736l-68.486,15.797l45.574-45.565c5.063,2.064,11.092,1.037,15.198-3.07
		c5.481-5.481,5.481-14.371,0-19.852c-5.472-5.471-14.362-5.471-19.843,0c-4.106,4.117-5.132,10.146-3.079,15.209l-45.565,45.564
		l15.806-68.476c1.066-4.634,3.418-8.84,6.737-12.168c1.016-1.008,2.123-1.934,3.308-2.771l85.748-60.454l39.993,39.983
		L120.499,456.805z M187.968,362.626l-38.588-38.588l26.948-26.949c2.133,3.07,4.544,5.642,6.777,7.873l23.928,23.938
		c2.232,2.233,4.814,4.644,7.874,6.777L187.968,362.626z"/>
</g>
</svg>